<svg xmlns="http://www.w3.org/2000/svg" width="29.61" height="23.54" viewBox="0 0 29.61 23.54"><defs><style>.a{fill:#fff;}</style></defs><g transform="translate(20.542 3.405)"><g transform="translate(0 0)"><path class="a" d="M363.964,118.964l-6.847-7.254a1.11,1.11,0,1,0-1.615,1.524l6.128,6.492-6.128,6.493a1.111,1.111,0,0,0,1.615,1.525l6.847-7.255A1.111,1.111,0,0,0,363.964,118.964Z" transform="translate(-355.199 -111.361)"/></g></g><g transform="translate(0 3.405)"><g transform="translate(0 0)"><path class="a" d="M8.766,126.217l-6.128-6.492,6.128-6.492a1.11,1.11,0,1,0-1.615-1.524L.3,118.962a1.111,1.111,0,0,0,0,1.525l6.848,7.255a1.111,1.111,0,0,0,1.615-1.525Z" transform="translate(-0.001 -111.36)"/></g></g><g transform="translate(12.066)"><g transform="translate(0 0)"><path class="a" d="M213.172,52.49a1.112,1.112,0,0,0-1.265.93L208.649,74.74a1.111,1.111,0,0,0,.93,1.265,1.143,1.143,0,0,0,.169.013,1.111,1.111,0,0,0,1.1-.943L214.1,53.756A1.111,1.111,0,0,0,213.172,52.49Z" transform="translate(-208.636 -52.478)"/></g></g></svg>