<svg xmlns="http://www.w3.org/2000/svg" width="17.077" height="17.077" viewBox="0 0 17.077 17.077"><defs><style>.a{fill:#282560;}</style></defs><g transform="translate(0 3.049)"><path class="a" d="M12.2,85.333H1.83A1.83,1.83,0,0,0,0,87.163V97.531a1.83,1.83,0,0,0,1.83,1.83H12.2a1.83,1.83,0,0,0,1.83-1.83V87.163A1.83,1.83,0,0,0,12.2,85.333Z" transform="translate(0 -85.333)"/></g><g transform="translate(2.44 0)"><g transform="translate(0 0)"><path class="a" d="M81.075,0H70.1a1.83,1.83,0,0,0-1.83,1.816V1.83h9.758a3.053,3.053,0,0,1,3.049,3.049v9.758h.014a1.83,1.83,0,0,0,1.816-1.83V1.83A1.83,1.83,0,0,0,81.075,0Z" transform="translate(-68.267 0)"/></g></g></svg>