<svg xmlns="http://www.w3.org/2000/svg" width="24" height="24" viewBox="0 0 24 24"><defs><style>.a{fill:#fff;}</style></defs><g transform="translate(0 4.286)"><path class="a" d="M17.143,85.333H2.571A2.571,2.571,0,0,0,0,87.9v14.571a2.571,2.571,0,0,0,2.571,2.571H17.143a2.571,2.571,0,0,0,2.571-2.571V87.9A2.571,2.571,0,0,0,17.143,85.333Z" transform="translate(0 -85.333)"/></g><g transform="translate(3.429 0)"><g transform="translate(0 0)"><path class="a" d="M86.267,0H70.838a2.571,2.571,0,0,0-2.571,2.552v.02H81.981a4.291,4.291,0,0,1,4.286,4.286V20.571h.02A2.571,2.571,0,0,0,88.838,18V2.571A2.571,2.571,0,0,0,86.267,0Z" transform="translate(-68.267 0)"/></g></g></svg>