<svg xmlns="http://www.w3.org/2000/svg" width="24" height="24" viewBox="0 0 24 24"><defs><style>.a{fill:#fff;}</style></defs><path class="a" d="M21.75,0H2.25A2.25,2.25,0,0,0,0,2.25v19.5A2.25,2.25,0,0,0,2.25,24h19.5A2.25,2.25,0,0,0,24,21.75V2.25A2.25,2.25,0,0,0,21.75,0Zm.75,14.692-3.218-3.217a.75.75,0,0,0-1.057,0L14.25,15.442,9.532,10.725a.75.75,0,0,0-1.057,0L1.5,17.692V2.25a.75.75,0,0,1,.75-.75h19.5a.75.75,0,0,1,.75.75Z"/><path class="a" d="M227,80a3,3,0,1,0,3,3A3,3,0,0,0,227,80Zm0,4.5a1.5,1.5,0,1,1,1.5-1.5A1.5,1.5,0,0,1,227,84.5Z" transform="translate(-213.5 -76.25)"/></svg>